# 3ds Max Wavefront OBJ Exporter v0.94b - (c)2007 guruware
# File Created: 21.12.2015 21:21:27

mtllib Corridor_Loop_Floor.mtl

#
# object Floor
#

v  -157.4600 -0.0000 78.7401
v  -157.4600 -0.0000 -0.0000
v  -209.9534 -0.0000 -0.0000
v  -209.9535 -0.0000 78.7401
v  -52.4731 -0.0000 78.7401
v  -52.4797 -0.0000 -0.0000
v  -104.9666 -0.0000 -0.0000
v  -104.9666 -0.0000 78.7401
v  0.0138 -0.0000 78.7401
v  0.0138 -0.0000 -0.0000
v  -157.4600 -0.0000 -78.7402
v  -209.9534 -0.0000 -78.7402
v  -104.9665 -0.0000 -78.7402
v  -52.4731 -0.0000 -78.7402
v  0.0138 -0.0000 -78.7402
v  52.5007 0.0000 -84.3007
v  0.0138 -0.0000 -84.3008
v  52.5007 0.0000 -78.7402
v  157.4875 0.0000 78.7402
v  209.9810 0.0000 78.7402
v  209.9810 0.0000 0.0000
v  157.4875 0.0000 0.0000
v  104.9941 0.0000 78.7402
v  104.9941 0.0000 0.0000
v  52.5006 0.0000 78.7402
v  52.5072 0.0000 -0.0000
v  0.0138 -0.0000 84.3823
v  52.5006 0.0000 84.3823
v  157.4875 0.0000 -78.7402
v  209.9810 0.0000 -78.7401
v  104.9941 0.0000 -78.7402
v  -52.4731 -0.0000 84.3823
v  -52.4731 -0.0000 -84.3008
v  -157.4600 -0.0000 80.7874
v  -104.9666 -0.0000 80.7874
v  -157.4600 -0.0000 -80.7874
v  -104.9665 -0.0000 -80.7874
v  157.4875 0.0000 80.7874
v  104.9941 0.0000 80.7874
v  157.4875 0.0000 -80.7874
v  104.9941 0.0000 -80.7874
# 41 vertices

vn -0.0000 1.0000 -0.0000
# 1 vertex normals

vt 0.2090 0.3667 0.0000
vt 0.2090 0.6479 0.0000
vt 0.3964 0.6479 0.0000
vt 0.3964 0.3667 0.0000
vt 0.0216 0.3667 0.0000
vt 0.0216 0.6479 0.0000
vt 0.0216 0.5638 0.0000
vt 0.0424 0.3667 0.0000
vt 0.0424 0.5638 0.0000
vt 0.0427 0.3667 0.0000
vt 0.0427 0.5638 0.0000
vt 0.8202 0.0398 0.0000
vt 0.6328 0.0398 0.0000
vt 0.6328 0.0325 0.0000
vt 0.8202 0.0325 0.0000
# 15 texture coords

g Floor
usemtl floor
s 1
f 1/1/1 2/2/1 3/3/1 
f 3/3/1 4/4/1 1/1/1 
f 5/1/1 6/2/1 7/3/1 
f 7/3/1 8/4/1 5/1/1 
f 9/5/1 10/6/1 6/2/1 
f 6/2/1 5/1/1 9/5/1 
f 11/1/1 12/4/1 3/3/1 
f 3/3/1 2/2/1 11/1/1 
f 13/5/1 11/1/1 2/2/1 
f 2/2/1 7/6/1 13/5/1 
f 14/1/1 13/4/1 7/3/1 
f 7/3/1 6/2/1 14/1/1 
f 15/5/1 14/1/1 6/2/1 
f 6/2/1 10/6/1 15/5/1 
f 16/7/1 17/5/1 15/8/1 
f 15/8/1 18/9/1 16/7/1 
f 19/1/1 20/4/1 21/3/1 
f 21/3/1 22/2/1 19/1/1 
f 23/5/1 19/1/1 22/2/1 
f 22/2/1 24/6/1 23/5/1 
f 25/1/1 23/4/1 24/3/1 
f 24/3/1 26/2/1 25/1/1 
f 9/5/1 25/1/1 26/2/1 
f 26/2/1 10/6/1 9/5/1 
f 27/10/1 28/11/1 25/7/1 
f 25/7/1 9/5/1 27/10/1 
f 29/1/1 22/2/1 21/3/1 
f 21/3/1 30/4/1 29/1/1 
f 31/5/1 24/6/1 22/2/1 
f 22/2/1 29/1/1 31/5/1 
f 8/5/1 7/6/1 2/2/1 
f 2/2/1 1/1/1 8/5/1 
f 18/1/1 26/2/1 24/3/1 
f 24/3/1 31/4/1 18/1/1 
f 15/5/1 10/6/1 26/2/1 
f 26/2/1 18/1/1 15/5/1 
f 32/10/1 27/11/1 9/7/1 
f 9/7/1 5/5/1 32/10/1 
f 17/7/1 33/5/1 14/8/1 
f 14/8/1 15/9/1 17/7/1 
f 34/12/1 35/13/1 8/14/1 
f 8/14/1 1/15/1 34/12/1 
f 36/12/1 11/15/1 13/14/1 
f 13/14/1 37/13/1 36/12/1 
f 38/12/1 19/15/1 23/14/1 
f 23/14/1 39/13/1 38/12/1 
f 40/12/1 41/13/1 31/14/1 
f 31/14/1 29/15/1 40/12/1 
# 48 faces

